<svg width="155" height="155" viewBox="0 0 155 155" fill="none" xmlns="http://www.w3.org/2000/svg">
<path d="M93.4857 0H10.8191C5.12538 0 0.485718 4.63967 0.485718 10.3333V144.667C0.485718 150.371 5.12538 155 10.8191 155H93.4857C99.1897 155 103.819 150.371 103.819 144.667V10.3333C103.819 4.63967 99.1897 0 93.4857 0ZM63.7774 93C61.5764 93 59.4064 92.5867 57.319 91.915V103.333H62.4857C65.3377 103.333 67.6524 105.648 67.6524 108.5C67.6524 111.352 65.3377 113.667 62.4857 113.667H41.819C38.967 113.667 36.6524 111.352 36.6524 108.5C36.6524 105.648 38.967 103.333 41.819 103.333H46.9857V91.915C44.8984 92.5867 42.7284 93 40.5274 93C29.667 93 21.1524 84.8987 21.1524 74.5447C21.1524 60.977 42.7697 46.3037 49.3934 42.129C51.0674 41.0853 53.1857 41.0647 54.8597 42.1083C59.5924 45.012 83.1524 60.2847 83.1524 74.5447C83.1524 84.8987 74.6377 93 63.7774 93Z" fill="white"/>
<path d="M128.495 16.3991L114.152 12.5551V109.854L135.801 29.0574C137.278 23.5497 134.003 17.8767 128.495 16.3991Z" fill="white"/>
<path d="M149.348 46.2314L142.9 42.5114L125.116 108.872L153.13 60.3467C155.982 55.397 154.287 49.0834 149.348 46.2314Z" fill="white"/>
</svg>
