<svg width="40" height="40" viewBox="0 0 40 40" fill="none" xmlns="http://www.w3.org/2000/svg">
<path d="M20 0C8.95468 0 0 8.95427 0 20C0 31.0457 8.95468 40 20 40C31.0453 40 40 31.0457 40 20C40 8.95427 31.0453 0 20 0ZM22.3014 26.6431C20.4514 26.6431 18.7114 25.643 18.1156 24.5074C18.1156 24.5074 17.1204 28.4542 16.9113 29.2158C16.1694 31.9083 13.9871 34.6017 13.8173 34.8223C13.699 34.9758 13.4375 34.9279 13.4105 34.7241C13.3643 34.3812 12.807 30.9843 13.4625 28.214C13.7903 26.8227 15.6653 18.8784 15.6653 18.8784C15.6653 18.8784 15.1194 17.7846 15.1194 16.1674C15.1194 13.6282 16.5909 11.7328 18.4233 11.7328C19.9812 11.7328 20.7333 12.9027 20.7333 14.3051C20.7333 15.8715 19.7365 18.2138 19.2221 20.3842C18.792 22.2015 20.1326 23.6841 21.9249 23.6841C25.1712 23.6841 27.3559 19.5151 27.3559 14.5747C27.3559 10.8207 24.8286 8.00941 20.2283 8.00941C15.0326 8.00941 11.7925 11.885 11.7925 16.2148C11.7925 17.7068 12.2337 18.7605 12.9236 19.5744C13.2399 19.9488 13.2849 20.0994 13.1699 20.5291C13.0869 20.8446 12.8998 21.6033 12.8205 21.9032C12.7063 22.3378 12.3552 22.4925 11.9619 22.3325C9.56972 21.3557 8.45422 18.7343 8.45422 15.7876C8.45422 10.9209 12.5582 5.08522 20.6985 5.08522C27.2397 5.08522 31.545 9.81811 31.545 14.8996C31.5454 21.6221 27.8081 26.6431 22.3014 26.6431Z" fill="white"/>
</svg>
