<svg width="104" height="104" viewBox="0 0 104 104" fill="none" xmlns="http://www.w3.org/2000/svg">
<g clip-path="url(#clip0)">
<path d="M81.5977 87.3137C81.5977 92.9401 68.5285 97.5007 52.4068 97.5007C36.2851 97.5007 23.2159 92.9401 23.2159 87.3137C23.2159 81.6873 36.2845 77.125 52.4068 77.125C68.529 77.125 81.5977 81.6931 81.5977 87.3137Z" fill="#A0DCF2"/>
<path d="M81.5977 87.3137C81.5977 92.9401 68.5285 97.5007 52.4068 97.5007C36.2851 97.5007 23.2159 92.9401 23.2159 87.3137C23.2159 81.6873 36.2845 77.125 52.4068 77.125C68.529 77.125 81.5977 81.6931 81.5977 87.3137Z" fill="#82BDE7"/>
<path d="M19.0628 57.358L18.2202 60.2857C18.2202 60.2857 18.001 61.3439 19.0007 61.5312C20.0445 61.511 19.9593 60.5367 19.8862 60.2209L19.0628 57.3586V57.358Z" fill="#A0DCF2"/>
<path d="M103.923 45.0836L104 44.7031C95.4364 42.9955 86.6489 42.9782 81.3268 43.1985C82.2001 40.0609 82.4634 36.4503 82.4634 32.4239C82.4634 26.6495 80.2877 22.0299 76.7557 18.5147C77.3733 16.5284 78.1978 12.1158 75.9323 6.46804C75.9323 6.46804 71.9311 5.20284 62.899 11.2346C59.3583 10.3522 55.5903 9.91615 51.8164 9.91615C47.6645 9.91615 43.4691 10.4435 39.5562 11.5139C30.2283 5.16756 26.1112 6.46747 26.1112 6.46747C23.4229 13.1752 25.0848 18.1308 25.5893 19.3636C22.4301 22.7637 20.5015 27.1029 20.5015 32.4234C20.5015 36.4405 20.9607 40.0435 22.081 43.1753C16.7189 42.9811 8.25104 43.0556 -0.0121765 44.7019L0.0643669 45.0824C8.37107 43.4257 16.8912 43.3679 22.2156 43.5691C22.462 44.2168 22.7375 44.8413 23.0448 45.4542C17.7749 45.6236 8.77756 46.2927 0.154247 48.719L0.259785 49.092C8.95095 46.6477 18.0271 45.9949 23.246 45.8364C26.3947 51.6883 32.6023 55.4689 43.646 56.6497C42.078 57.6998 40.4799 59.4855 39.8304 62.5074C37.6948 63.5251 30.9334 66.0127 26.876 59.0552C26.876 59.0552 24.6052 54.915 20.2585 54.5911C20.2585 54.5911 16.0428 54.5333 19.9668 57.2106C19.9668 57.2106 22.7891 58.5365 24.7351 63.5135C24.7351 63.5135 27.275 72.0109 39.5289 69.2845V78.0623C39.5289 78.0623 39.2697 81.1675 36.415 82.2014C36.415 82.2014 34.7287 83.366 36.5449 84.0113C36.5449 84.0113 44.4573 84.659 44.4573 78.1913V68.6201C44.4573 68.6201 44.1441 64.8239 46.0131 63.5049V79.2373C46.0131 79.2373 45.8843 82.9884 43.9383 84.4115C43.9383 84.4115 42.6411 86.7389 45.4946 86.093C45.4946 86.093 50.942 85.317 51.2018 78.9788L51.3259 63.0694H52.6346L52.7593 78.9788C53.0185 85.3164 58.4664 86.093 58.4664 86.093C61.3194 86.7389 60.0223 84.4115 60.0223 84.4115C58.0768 82.989 57.9475 79.2373 57.9475 79.2373V63.6517C59.8164 65.0974 59.5038 68.6316 59.5038 68.6316V78.2028C59.5038 84.67 67.4157 84.0229 67.4157 84.0229C69.2307 83.377 67.5461 82.213 67.5461 82.213C64.692 81.1721 64.4322 78.0739 64.4322 78.0739V65.5276C64.4322 60.6356 62.3661 58.0439 60.3458 56.6763C72.1173 55.5117 77.7745 51.7196 80.3793 45.8272C85.5379 45.9683 94.8217 46.5951 103.702 49.0943L103.807 48.7213C94.9777 46.2378 85.7559 45.5953 80.5446 45.4438C80.7916 44.8482 81.0068 44.2295 81.1981 43.5934C86.4779 43.3621 95.3053 43.3708 103.903 45.0853" fill="#292929"/>
<path d="M70.9488 32.1463C73.4858 34.4379 74.9697 37.206 74.9697 40.1869C74.9697 54.1082 64.5621 54.4858 51.7254 54.4858C38.8887 54.4858 28.48 52.5643 28.48 40.1927C28.48 37.2309 29.9436 34.4807 32.4492 32.1984C36.6278 28.3946 43.7011 30.4087 51.7243 30.4087C59.7161 30.4087 66.7627 28.3744 70.9471 32.1521" fill="#F5CDB5"/>
<path d="M43.9957 40.9023C43.9957 44.7361 41.8304 47.8447 39.1595 47.8447C36.4886 47.8447 34.3222 44.7366 34.3222 40.9023C34.3222 37.0679 36.4886 33.961 39.1595 33.961C41.8304 33.961 43.9957 37.0679 43.9957 40.9023Z" fill="white"/>
<path d="M42.4433 40.9895C42.4433 43.5454 40.9936 45.6167 39.2192 45.6167C37.4448 45.6167 35.9951 43.5454 35.9951 40.9895C35.9951 38.4337 37.4378 36.3601 39.2192 36.3601C41.0006 36.3601 42.4433 38.4325 42.4433 40.9895Z" fill="#B1645A"/>
<path d="M69.9427 40.9023C69.9427 44.7361 67.7775 47.8447 65.1054 47.8447C62.4333 47.8447 60.2693 44.7366 60.2693 40.9023C60.2693 37.0679 62.4351 33.961 65.1054 33.961C67.7757 33.961 69.9427 37.0679 69.9427 40.9023Z" fill="white"/>
<path d="M68.3904 40.9895C68.3904 43.5454 66.9408 45.6166 65.1663 45.6166C63.3919 45.6166 61.9422 43.5454 61.9422 40.9895C61.9422 38.4336 63.3919 36.36 65.1663 36.36C66.9408 36.36 68.3904 38.4325 68.3904 40.9895ZM53.0029 47.0611C53.0029 47.7273 52.4613 48.2673 51.7933 48.2673C51.1252 48.2673 50.5836 47.7273 50.5836 47.0611C50.5836 46.395 51.1247 45.8549 51.7933 45.8549C52.4619 45.8549 53.0029 46.395 53.0029 47.0611ZM48.9757 50.1114C48.9586 50.0634 48.9513 50.0125 48.954 49.9616C48.9567 49.9107 48.9694 49.8609 48.9914 49.8149C49.0135 49.7689 49.0443 49.7278 49.0823 49.6937C49.1203 49.6596 49.1647 49.6334 49.2128 49.6164C49.261 49.5994 49.312 49.5921 49.363 49.5948C49.4141 49.5975 49.464 49.6102 49.5101 49.6321C49.5562 49.6541 49.5975 49.6849 49.6317 49.7228C49.6658 49.7607 49.6922 49.8049 49.7092 49.8529C50.02 50.729 50.8533 51.3176 51.7834 51.3176C52.7135 51.3176 53.5462 50.729 53.8582 49.8529C53.8752 49.8049 53.9016 49.7607 53.9357 49.7229C53.9698 49.685 54.0111 49.6543 54.0572 49.6323C54.1032 49.6104 54.1532 49.5977 54.2042 49.595C54.2551 49.5924 54.3062 49.5997 54.3543 49.6167C54.4024 49.6337 54.4467 49.6599 54.4847 49.694C54.5226 49.728 54.5535 49.7692 54.5755 49.8151C54.5975 49.861 54.6102 49.9109 54.6129 49.9617C54.6156 50.0125 54.6082 50.0634 54.5912 50.1114C54.3821 50.6867 54.0005 51.1838 53.4981 51.5351C52.9957 51.8865 52.397 52.075 51.7834 52.075C51.1698 52.075 50.5711 51.8865 50.0687 51.5351C49.5663 51.1838 49.1847 50.6867 48.9757 50.1114Z" fill="#B1645A"/>
<path d="M22.1593 55.6319C22.1593 55.954 21.7812 56.2136 21.3156 56.2136C20.85 56.2136 20.4725 55.9534 20.4725 55.6319C20.4725 55.3104 20.8494 55.049 21.3156 55.049C21.7818 55.049 22.1593 55.3092 22.1593 55.6319ZM24.4951 56.9243C24.4951 57.2464 24.117 57.5071 23.6513 57.5071C23.1857 57.5071 22.8082 57.2469 22.8082 56.9243C22.8082 56.6016 23.1851 56.3426 23.6513 56.3426C24.1176 56.3426 24.4951 56.6028 24.4951 56.9243ZM25.9227 58.6012C25.9227 58.9221 25.5458 59.1829 25.079 59.1829C24.6122 59.1829 24.2364 58.9227 24.2364 58.6012C24.2364 58.2797 24.6134 58.0183 25.079 58.0183C25.5446 58.0183 25.9227 58.2785 25.9227 58.6012ZM27.2187 60.5424C27.2187 60.8645 26.8418 61.1253 26.3762 61.1253C25.9105 61.1253 25.5325 60.865 25.5325 60.5424C25.5325 60.2197 25.9094 59.9595 26.3762 59.9595C26.843 59.9595 27.2187 60.2197 27.2187 60.5424ZM28.6464 62.3598C28.6464 62.6807 28.2695 62.9415 27.8033 62.9415C27.337 62.9415 26.9595 62.6813 26.9595 62.3598C26.9595 62.0383 27.3376 61.7769 27.8033 61.7769C28.2689 61.7769 28.6464 62.0372 28.6464 62.3598ZM30.593 63.9113C30.593 64.2333 30.2161 64.4941 29.7493 64.4941C29.2825 64.4941 28.9068 64.2339 28.9068 63.9113C28.9068 63.5886 29.2837 63.3295 29.7493 63.3295C30.2149 63.3295 30.593 63.5898 30.593 63.9113Z" fill="#C5E6DA"/>
<path d="M33.3173 64.9471C33.3173 65.268 32.9404 65.5288 32.4741 65.5288C32.0079 65.5288 31.6304 65.2686 31.6304 64.9471C31.6304 64.6256 32.0074 64.3642 32.4741 64.3642C32.9409 64.3642 33.3173 64.6244 33.3173 64.9471Z" fill="#C5E6DA"/>
<path d="M36.0288 64.9471C36.0288 65.268 35.6519 65.5288 35.1856 65.5288C34.7194 65.5288 34.3419 65.2686 34.3419 64.9471C34.3419 64.6256 34.7188 64.3642 35.1856 64.3642C35.6524 64.3642 36.0288 64.6244 36.0288 64.9471Z" fill="#C5E6DA"/>
<path d="M38.7809 64.4965C38.7809 64.8186 38.4039 65.0793 37.9377 65.0793C37.4715 65.0793 37.094 64.8191 37.094 64.4965C37.094 64.1738 37.4709 63.9136 37.9377 63.9136C38.4045 63.9136 38.7809 64.1738 38.7809 64.4965Z" fill="#C5E6DA"/>
</g>
<defs>
<clipPath id="clip0">
<rect width="104" height="104" fill="white"/>
</clipPath>
</defs>
</svg>
