<svg width="104" height="104" viewBox="0 0 104 104" fill="none" xmlns="http://www.w3.org/2000/svg">
<path d="M11.2039 76.5334L14.9416 78.6914L56.5806 6.57266L52.8429 4.41466L11.2039 76.5334Z" fill="#E535AB"/>
<path d="M93.626 70.7717H10.348V75.0877H93.626V70.7717Z" fill="#E535AB"/>
<path d="M11.9959 73.1963L53.6505 97.2463L55.8084 93.5087L14.1539 69.4587L11.9959 73.1963Z" fill="#E535AB"/>
<path d="M48.1811 10.5162L89.8358 34.5662L91.9938 30.8285L50.3391 6.7785L48.1811 10.5162Z" fill="#E535AB"/>
<path d="M12.0074 30.8121L14.1654 34.5498L55.82 10.4998L53.662 6.76215L12.0074 30.8121Z" fill="#E535AB"/>
<path d="M47.4288 6.5734L89.0678 78.6921L92.8055 76.5341L51.1665 4.4154L47.4288 6.5734Z" fill="#E535AB"/>
<path d="M17.966 27.9497H13.65V76.0497H17.966V27.9497Z" fill="#E535AB"/>
<path d="M90.35 27.9497H86.034V76.0497H90.35V27.9497Z" fill="#E535AB"/>
<path d="M51.0307 92.1544L52.9157 95.4192L89.144 74.5022L87.259 71.2374L51.0307 92.1544Z" fill="#E535AB"/>
<path d="M96.07 77.4539C93.574 81.7959 88.01 83.2779 83.668 80.7819C79.326 78.2859 77.844 72.7219 80.34 68.3799C82.836 64.0379 88.4 62.556 92.742 65.0519C97.11 67.5739 98.592 73.1119 96.07 77.4539Z" fill="#E535AB"/>
<path d="M23.634 35.6197C21.138 39.9617 15.574 41.4437 11.232 38.9477C6.89 36.4517 5.408 30.8877 7.904 26.5457C10.4 22.2037 15.964 20.7217 20.306 23.2177C24.648 25.7397 26.13 31.2777 23.634 35.6197Z" fill="#E535AB"/>
<path d="M7.93015 77.4539C5.43415 73.1119 6.91615 67.5739 11.2582 65.0519C15.6002 62.556 21.1382 64.0379 23.6602 68.3799C26.1562 72.7219 24.6742 78.2599 20.3322 80.7819C15.9642 83.2779 10.4262 81.7959 7.93015 77.4539Z" fill="#E535AB"/>
<path d="M80.366 35.6197C77.87 31.2777 79.352 25.7397 83.694 23.2177C88.036 20.7217 93.574 22.2037 96.096 26.5457C98.592 30.8877 97.11 36.4257 92.768 38.9477C88.426 41.4437 82.862 39.9617 80.366 35.6197Z" fill="#E535AB"/>
<path d="M52 102.908C46.982 102.908 42.926 98.8518 42.926 93.8338C42.926 88.8158 46.982 84.7598 52 84.7598C57.018 84.7598 61.074 88.8158 61.074 93.8338C61.074 98.8258 57.018 102.908 52 102.908Z" fill="#E535AB"/>
<path d="M52 19.2398C46.982 19.2398 42.926 15.1838 42.926 10.1658C42.926 5.1478 46.982 1.0918 52 1.0918C57.018 1.0918 61.074 5.1478 61.074 10.1658C61.074 15.1838 57.018 19.2398 52 19.2398Z" fill="#E535AB"/>
</svg>
