<svg width="76" height="76" viewBox="0 0 76 76" fill="none" xmlns="http://www.w3.org/2000/svg">
<g clip-path="url(#clip0)">
<path fill-rule="evenodd" clip-rule="evenodd" d="M70.0049 59.2C65.8714 59.0848 62.6647 59.5085 59.977 60.6391C59.2031 60.95 57.9612 60.95 57.8593 61.924C58.2729 62.3327 58.3227 63.0016 58.6853 63.568C59.3051 64.5962 60.3917 65.9812 61.373 66.6996L64.6805 69.0632C66.6963 70.2952 68.9704 71.0147 70.934 72.2478C72.0717 72.9673 73.2081 73.8918 74.3458 74.6632C74.925 75.0742 75.2761 75.7431 76.0001 75.9987V75.8433C75.6387 75.3828 75.5344 74.715 75.1741 74.1992L73.6217 72.7106C72.1238 70.7073 70.2621 68.9596 68.2463 67.5228C66.592 66.3922 62.9752 64.8517 62.3032 62.9521L62.2013 62.837C63.3366 62.7218 64.6805 62.3223 65.7671 62.0138C67.5257 61.5532 69.1268 61.6546 70.934 61.1929L73.4167 60.4733V60.0128C72.4864 59.0883 71.8145 57.8552 70.8332 56.9825C68.1977 54.7225 65.3014 52.5132 62.3032 50.6641C60.7011 49.6372 58.6331 48.9683 56.9278 48.0967C56.3057 47.7882 55.2735 47.6339 54.9121 47.1204C53.9795 45.9921 53.464 44.5012 52.792 43.1645L48.5543 34.2269C47.624 32.2236 47.054 30.2203 45.9187 28.3713C40.5943 19.6386 34.8041 14.3483 25.9139 9.15939C24.0023 8.08061 21.7282 7.61663 19.3104 7.05248L15.4341 6.84525C14.6058 6.48604 13.7798 5.50973 13.0557 5.0469C10.1097 3.19789 2.51116 -0.808668 0.338983 4.47124C-1.057 7.81005 2.40689 11.097 3.58276 12.7929C4.46321 13.9742 5.59853 15.3097 6.22064 16.6452C6.56819 17.5179 6.68405 18.4436 7.04665 19.3681C7.87266 21.6281 8.64885 24.146 9.73435 26.2529C10.3136 27.3317 10.9218 28.4634 11.6459 29.4386C12.0595 30.0142 12.7835 30.2606 12.9376 31.1851C12.2135 32.2132 12.1637 33.7525 11.7501 35.0386C9.88843 40.8435 10.6125 48.0346 13.2481 52.3082C14.0764 53.5919 16.0284 56.4184 18.6768 55.3385C21.003 54.414 20.484 51.4862 21.1559 48.9176C21.3123 48.3017 21.2081 47.8906 21.5174 47.4785V47.5936L23.6374 51.8569C25.2396 54.3737 28.0316 56.9941 30.3567 58.7417C31.5963 59.6662 32.5787 61.2597 34.1287 61.8238V61.6684H34.0268C33.7163 61.2079 33.2506 61.0006 32.837 60.6414C31.9067 59.7169 30.8734 58.5863 30.1493 57.5593C27.9795 54.6834 26.0679 51.4977 24.3615 48.2107C23.5332 46.6184 22.8091 44.8719 22.1395 43.2796C21.8267 42.6625 21.8267 41.7369 21.3112 41.4306C20.535 42.5589 19.3997 43.5375 18.8285 44.9237C17.8461 47.1319 17.7442 49.8548 17.3827 52.6801C17.1742 52.7319 17.2669 52.6801 17.1742 52.7952C15.5222 52.3854 14.9522 50.6883 14.3324 49.2515C12.7823 45.6041 12.5228 39.7486 13.8667 35.5359C14.2281 34.4571 15.7805 31.0665 15.1607 30.0396C14.8479 29.0632 13.8169 28.4991 13.2469 27.7277C12.575 26.7514 11.8532 25.5195 11.3875 24.4407C10.1479 21.5625 9.52814 18.3791 8.18313 15.502C7.56102 14.1664 6.47668 12.7791 5.59738 11.5472C4.61498 10.1599 3.53179 9.18356 2.7556 7.54064C2.49725 6.96498 2.1358 6.05085 2.54938 5.43374C2.65133 5.02272 2.85986 4.85809 3.27112 4.76598C3.94305 4.19032 5.85687 4.92026 6.5288 5.22651C8.44031 5.99788 10.0425 6.7163 11.6447 7.79393C12.3688 8.30741 13.145 9.28373 14.0752 9.54162H15.1619C16.8162 9.90083 18.6756 9.65675 20.2245 10.1173C22.9643 10.9923 25.4447 12.2748 27.669 13.6633C34.4392 17.9266 40.0231 23.9883 43.7952 31.2323C44.415 32.4136 44.6733 33.4923 45.2433 34.7254C46.33 37.2433 47.6738 39.8107 48.757 42.278C49.8437 44.6923 50.877 47.1596 52.4271 49.1628C53.2033 50.2416 56.3034 50.8058 57.6983 51.371C58.7328 51.8316 60.3338 52.246 61.2664 52.8102C63.0227 53.889 64.7801 55.122 66.4333 56.3033C67.2593 56.9181 69.845 58.2029 69.9991 59.2276L70.0049 59.2ZM17.2935 14.5613C16.5794 14.5551 15.8675 14.6414 15.1758 14.8181V14.9332H15.2777C15.6913 15.7552 16.4154 16.3205 16.9321 17.0401L18.1218 19.5062L18.2238 19.3911C18.9478 18.8776 19.3104 18.0556 19.3104 16.8237C19 16.4645 18.949 16.1041 18.6907 15.7449C18.3802 15.2314 17.7083 14.9735 17.2935 14.5636V14.5613Z" fill="#00678C"/>
</g>
<defs>
<clipPath id="clip0">
<rect width="76" height="76" fill="white"/>
</clipPath>
</defs>
</svg>
