<svg width="88" height="88" viewBox="0 0 88 88" fill="none" xmlns="http://www.w3.org/2000/svg">
<path d="M40.304 1.17417C42.504 -0.0715809 45.309 -0.0770809 47.454 1.17417L80.3 19.6899C82.3543 20.8449 83.7293 23.1357 83.71 25.5034V62.6284C83.7238 65.0952 82.214 67.4354 80.047 68.5684L47.377 86.9989C46.2596 87.6164 44.9972 87.9235 43.721 87.8882C42.4448 87.8529 41.2013 87.4765 40.1198 86.7982L30.316 81.1332C29.6478 80.7344 28.897 80.4182 28.424 79.7719C28.842 79.2109 29.5845 79.1394 30.1895 78.8919C31.5535 78.4574 32.802 77.7919 34.056 77.0879C34.3723 76.8679 34.76 76.9504 35.0625 77.1484L43.4225 81.9829C44.0193 82.3267 44.6243 81.8729 45.1358 81.5842L77.2145 63.4809C77.6105 63.2884 77.8305 62.8704 77.7975 62.4359V25.6684C77.8415 25.1734 77.5583 24.7224 77.11 24.5217L44.5225 6.17092C44.3347 6.04103 44.1119 5.97122 43.8836 5.97073C43.6552 5.97024 43.4321 6.03909 43.2438 6.16817L10.703 24.5574C10.263 24.7582 9.9605 25.2037 10.0155 25.6987V62.4662C9.977 62.9007 10.208 63.3104 10.6068 63.4974L19.3023 68.4062C20.9358 69.2862 22.9405 69.7812 24.739 69.1349C25.526 68.8383 26.2036 68.3082 26.6809 67.6157C27.1581 66.9231 27.4123 66.1012 27.4093 65.2602L27.4175 28.7127C27.379 28.1709 27.8905 27.7227 28.4158 27.7777H32.5958C33.1458 27.7639 33.5775 28.3469 33.5033 28.8914L33.495 65.6699C33.4978 68.9369 32.1558 72.4899 29.1335 74.0932C25.41 76.0182 20.8065 75.6139 17.127 73.7632L7.777 68.5932C5.577 67.4932 4.10025 65.1172 4.114 62.6532V25.5282C4.12315 24.3215 4.45486 23.1393 5.07476 22.1041C5.69466 21.0688 6.58017 20.2182 7.6395 19.6404L40.304 1.17417ZM49.775 26.9087C54.5243 26.6337 59.609 26.7272 63.8825 29.0674C67.1908 30.8604 69.025 34.6224 69.0855 38.3019C68.992 38.7969 68.475 39.0719 68.002 39.0362C66.627 39.0334 65.2465 39.0554 63.866 39.0279C63.2803 39.0499 62.942 38.5109 62.8678 37.9939C62.4718 36.2339 61.512 34.4932 59.8565 33.6434C57.3155 32.3702 54.3675 32.4334 51.5955 32.4609C49.5715 32.5709 47.3963 32.7442 45.683 33.9322C44.363 34.8342 43.967 36.6822 44.4373 38.1177C44.8773 39.1709 46.0955 39.5092 47.0883 39.8227C52.8138 41.3187 58.8775 41.1977 64.4958 43.1419C66.8195 43.9449 69.0938 45.5069 69.8913 47.9407C70.9308 51.2022 70.477 55.1017 68.1588 57.7197C66.2778 59.8757 63.5388 61.0197 60.8025 61.6852C57.1643 62.4964 53.3913 62.5157 49.698 62.1527C46.2248 61.7567 42.6113 60.8437 39.93 58.4787C37.6365 56.4877 36.52 53.3857 36.63 50.3937C36.6575 49.8877 37.1608 49.5357 37.6475 49.5769H41.7725C42.328 49.5384 42.735 50.0169 42.7625 50.5394C43.0183 52.1894 43.648 53.9769 45.111 54.9394C47.9325 56.7599 51.4718 56.6334 54.7003 56.6857C57.376 56.5674 60.379 56.5317 62.5653 54.7607C63.7203 53.7514 64.0585 52.0657 63.7478 50.6137C63.4095 49.3872 62.0978 48.8179 60.9978 48.4137C55.3465 46.6262 49.214 47.2752 43.6178 45.2512C41.3463 44.4482 39.149 42.9302 38.2773 40.5954C37.059 37.2954 37.6173 33.2062 40.183 30.6762C42.658 28.1599 46.288 27.1892 49.7255 26.8427L49.775 26.9087Z" fill="#8CC84B"/>
</svg>
