<svg width="102" height="102" viewBox="0 0 102 102" fill="none" xmlns="http://www.w3.org/2000/svg">
<g clip-path="url(#clip0)">
<path d="M0 50.0387C0 64.6527 22.8338 76.5 50.9997 76.5C79.1655 76.5 101.999 64.6527 101.999 50.0387C101.999 35.4248 79.1655 23.5775 50.9997 23.5775C22.8338 23.5775 0 35.425 0 50.0387Z" fill="url(#paint0_radial)"/>
<path d="M50.9997 74.5352C78.0656 74.5352 100.007 63.5679 100.007 50.0388C100.007 36.5098 78.0656 25.5425 50.9997 25.5425C23.9338 25.5425 1.99219 36.5098 1.99219 50.0388C1.99219 63.5679 23.9338 74.5352 50.9997 74.5352Z" fill="#777BB3"/>
<path d="M27.7086 53.0758C29.9341 53.0758 31.5956 52.671 32.6466 51.8732C33.6866 51.0836 34.4049 49.7151 34.7814 47.8063C35.1324 46.0222 34.9987 44.7765 34.3841 44.1042C33.7556 43.4176 32.3969 43.0694 30.3457 43.0694H26.7893L24.8174 53.076H27.7084L27.7086 53.0758ZM16.0758 65.4022C15.9107 65.4022 15.7539 65.3294 15.6489 65.2035C15.597 65.1414 15.5597 65.0688 15.5396 64.9908C15.5195 64.9128 15.5172 64.8313 15.5327 64.7523L20.7581 38.2347C20.7827 38.1103 20.8503 37.9983 20.9494 37.9177C21.0485 37.8372 21.1729 37.7931 21.3014 37.7931H32.5634C36.1029 37.7931 38.7373 38.7392 40.3932 40.6108C42.058 42.4902 42.5721 45.1178 41.9211 48.4196C41.6562 49.7649 41.2006 51.0141 40.5672 52.133C39.9326 53.2529 39.0944 54.289 38.0751 55.2133C36.8547 56.3398 35.4735 57.1567 33.9734 57.6374C32.4972 58.1117 30.6015 58.3524 28.3385 58.3524H23.7783L22.476 64.9608C22.4515 65.0852 22.384 65.1973 22.2849 65.2779C22.1858 65.3585 22.0614 65.4025 21.933 65.4026H16.0758V65.4022Z" fill="black"/>
<path d="M27.2456 43.615H30.346C32.8215 43.615 33.6816 44.1508 33.9738 44.4701C34.4586 45.0003 34.5501 46.1181 34.2385 47.7026C33.8884 49.4765 33.2395 50.7343 32.3094 51.4406C31.3572 52.1636 29.8092 52.53 27.709 52.53H25.4888L27.2454 43.615H27.2456ZM32.5636 37.2471H21.3015C21.0447 37.2472 20.7958 37.3353 20.5976 37.4965C20.3995 37.6576 20.2643 37.8818 20.2152 38.1304L14.9898 64.6485C14.9587 64.8065 14.9634 64.9694 15.0036 65.1254C15.0438 65.2814 15.1185 65.4267 15.2223 65.551C15.3261 65.6752 15.4565 65.7752 15.6041 65.8439C15.7517 65.9126 15.9129 65.9482 16.0761 65.9482H21.9328C22.1896 65.9483 22.4385 65.8601 22.6368 65.699C22.835 65.5378 22.9702 65.3136 23.0192 65.0649L24.2345 58.8981H28.3387C30.6596 58.8981 32.6134 58.6485 34.1455 58.1563C35.7208 57.6514 37.1707 56.7954 38.4534 55.6121C39.5144 54.6493 40.3903 53.5685 41.0506 52.3996C41.711 51.2306 42.1887 49.9263 42.4651 48.5239C43.1503 45.0481 42.5936 42.2648 40.8105 40.2519C39.0448 38.2582 36.2701 37.2473 32.564 37.2473L32.5636 37.2471ZM24.1465 53.6219H27.709C30.0701 53.6219 31.8291 53.1834 32.9845 52.3057C34.14 51.428 34.9199 49.9632 35.325 47.9106C35.7123 45.9398 35.536 44.5491 34.7956 43.7387C34.0551 42.9284 32.571 42.5234 30.3464 42.5234H26.3336L24.1467 53.6217L24.1465 53.6219ZM32.5641 38.3388C35.9521 38.3388 38.4237 39.2157 39.9773 40.9696C41.5308 42.7235 41.9984 45.172 41.3786 48.3154C41.1235 49.6103 40.692 50.7942 40.0846 51.8669C39.4772 52.9396 38.6823 53.9215 37.701 54.8114C36.5315 55.8908 35.2324 56.6599 33.8028 57.1184C32.3732 57.5778 30.5526 57.8065 28.3391 57.8065H23.3225L21.9335 64.8566H16.0769L21.3015 38.3388H32.5638" fill="white"/>
<path d="M55.3499 58.3521C55.1846 58.3521 55.028 58.2793 54.923 58.1534C54.8181 58.0275 54.7751 57.8623 54.8068 57.7022L57.1181 45.969C57.338 44.8531 57.2837 44.0522 56.9655 43.7138C56.7708 43.507 56.1856 43.16 54.4556 43.16H50.268L47.3618 57.9102C47.3373 58.0346 47.2697 58.1467 47.1706 58.2273C47.0715 58.3079 46.947 58.3519 46.8185 58.3519H41.008C40.9264 58.3519 40.8458 58.3341 40.772 58.2998C40.6982 58.2655 40.633 58.2154 40.5811 58.1533C40.5291 58.0912 40.4918 58.0185 40.4717 57.9405C40.4516 57.8625 40.4492 57.7811 40.4648 57.702L45.6902 31.1844C45.7147 31.06 45.7823 30.948 45.8815 30.8674C45.9806 30.7869 46.105 30.7428 46.2334 30.7428H52.0439C52.1256 30.7428 52.2062 30.7606 52.28 30.795C52.3538 30.8293 52.419 30.8793 52.4709 30.9414C52.5229 31.0035 52.5602 31.0762 52.5803 31.1542C52.6004 31.2322 52.6027 31.3137 52.5872 31.3927L51.3262 37.793H55.8311C59.263 37.793 61.59 38.3897 62.9458 39.6175C64.3292 40.8699 64.7585 42.8724 64.2272 45.5705L61.796 57.9105C61.7715 58.0349 61.7039 58.147 61.6048 58.2276C61.5057 58.3082 61.3812 58.3523 61.2528 58.3523H55.35L55.3499 58.3521Z" fill="black"/>
<path d="M52.0437 30.197H46.2332C45.9764 30.1969 45.7275 30.2851 45.5292 30.4462C45.331 30.6074 45.1958 30.8316 45.1468 31.0803L39.9214 57.5979C39.8902 57.756 39.8949 57.9189 39.9351 58.0749C39.9753 58.2309 40.05 58.3763 40.1539 58.5005C40.2577 58.6247 40.3881 58.7248 40.5358 58.7934C40.6834 58.8621 40.8446 58.8977 41.0078 58.8977H46.8183C47.0752 58.8977 47.3241 58.8096 47.5224 58.6484C47.7206 58.4873 47.8558 58.2631 47.9048 58.0144L50.7239 43.7058H54.4556C56.1827 43.7058 56.5451 44.0697 56.5597 44.0853C56.6645 44.1963 56.8023 44.7112 56.5748 45.8647L54.2635 57.5979C54.2324 57.756 54.2371 57.9189 54.2773 58.0749C54.3175 58.2309 54.3922 58.3763 54.4961 58.5005C54.5999 58.6247 54.7303 58.7248 54.8779 58.7934C55.0256 58.8621 55.1868 58.8977 55.35 58.8977H61.2528C61.5097 58.8977 61.7585 58.8096 61.9568 58.6484C62.155 58.4873 62.2902 58.2631 62.3392 58.0144L64.7704 45.6744C65.341 42.7779 64.8529 40.6048 63.3206 39.2155C61.8582 37.891 59.4085 37.2469 55.8315 37.2469H51.9976L53.1308 31.4967C53.1619 31.3387 53.1572 31.1758 53.1171 31.0197C53.0769 30.8636 53.0022 30.7183 52.8983 30.594C52.7945 30.4698 52.6641 30.3697 52.5164 30.3011C52.3688 30.2324 52.2075 30.1968 52.0443 30.1968L52.0437 30.197ZM52.0443 31.2884L50.6553 38.3386H55.8316C59.0887 38.3386 61.3352 38.8993 62.5718 40.0193C63.8085 41.1393 64.1785 42.9558 63.6845 45.4662L61.2533 57.8061H55.3506L57.6619 46.0732C57.9249 44.7385 57.8282 43.828 57.3715 43.3426C56.9148 42.8572 55.9427 42.6141 54.4561 42.6141H49.8118L46.8187 57.8061H41.0082L46.2336 31.2884H52.0441" fill="white"/>
<path d="M73.4209 53.0758C75.6464 53.0758 77.3079 52.671 78.3589 51.8732C79.3989 51.0836 80.1172 49.7154 80.4939 47.8063C80.8449 46.0222 80.7112 44.7765 80.0964 44.1042C79.4679 43.4176 78.1092 43.0694 76.058 43.0694H72.5016L70.5297 53.076H73.4207L73.4209 53.0758ZM61.7885 65.4022C61.6234 65.4022 61.4666 65.3294 61.3616 65.2035C61.3097 65.1415 61.2723 65.0688 61.2522 64.9908C61.2321 64.9128 61.2297 64.8314 61.2452 64.7523L66.4706 38.2347C66.4952 38.1103 66.5628 37.9982 66.6619 37.9177C66.7611 37.8371 66.8856 37.7931 67.014 37.7931H78.2759C81.8157 37.7931 84.4498 38.7392 86.1059 40.6108C87.7707 42.4902 88.2844 45.1174 87.6338 48.4196C87.3685 49.7649 86.9131 51.0141 86.2795 52.133C85.6449 53.2529 84.8067 54.289 83.7874 55.2133C82.567 56.3398 81.1858 57.1567 79.6857 57.6374C78.2095 58.1117 76.3138 58.3524 74.0508 58.3524H69.4901L68.1883 64.9608C68.1638 65.0852 68.0962 65.1974 67.997 65.278C67.8979 65.3586 67.7734 65.4026 67.6449 65.4026H61.7883L61.7885 65.4022Z" fill="black"/>
<path d="M72.9579 43.615H76.0583C78.5337 43.615 79.3939 44.1508 79.6861 44.4701C80.1712 45.0003 80.2625 46.1181 79.9508 47.7025C79.6007 49.4764 78.9516 50.7343 78.0217 51.4406C77.0695 52.1636 75.5215 52.53 73.4212 52.53H71.2016L72.9581 43.615H72.9579ZM78.2759 37.2471H67.0138C66.757 37.2472 66.5081 37.3353 66.3099 37.4965C66.1117 37.6576 65.9765 37.8818 65.9275 38.1304L60.7023 64.6485C60.6712 64.8065 60.6759 64.9694 60.7161 65.1254C60.7563 65.2814 60.8309 65.4267 60.9348 65.551C61.0386 65.6752 61.169 65.7752 61.3166 65.8439C61.4642 65.9126 61.6254 65.9482 61.7886 65.9482H67.6452C67.9021 65.9483 68.151 65.8601 68.3492 65.699C68.5475 65.5378 68.6827 65.3136 68.7317 65.0649L69.9467 58.8981H74.051C76.3719 58.8981 78.3257 58.6485 79.8578 58.1563C81.4331 57.6514 82.883 56.7954 84.1661 55.6117C85.2271 54.6493 86.1007 53.5685 86.7629 52.3996C87.4251 51.2306 87.901 49.9263 88.1774 48.5239C88.8626 45.048 88.3059 42.2647 86.5227 40.2517C84.7571 38.2582 81.9826 37.2473 78.2762 37.2473L78.2759 37.2471ZM69.8589 53.6219H73.4212C75.7823 53.6219 77.5414 53.1834 78.6968 52.3057C79.8523 51.428 80.6322 49.9632 81.0372 47.9106C81.425 45.9398 81.2485 44.5491 80.5078 43.7387C79.7672 42.9284 78.2833 42.5234 76.0587 42.5234H72.0459L69.8591 53.6217L69.8589 53.6219ZM78.2764 38.3388C81.6644 38.3388 84.136 39.2157 85.6895 40.9696C87.2431 42.7235 87.7107 45.172 87.0909 48.3154C86.8358 49.6103 86.4043 50.7942 85.7969 51.8669C85.1895 52.9396 84.3946 53.9215 83.4133 54.8114C82.2438 55.8908 80.9447 56.6599 79.5151 57.1184C78.0855 57.5778 76.2649 57.8065 74.0514 57.8065H69.0348L67.6458 64.8566H61.7892L67.0146 38.339H78.2766" fill="white"/>
</g>
<defs>
<radialGradient id="paint0_radial" cx="0" cy="0" r="1" gradientUnits="userSpaceOnUse" gradientTransform="translate(30.6205 32.8806) scale(66.9699 66.0545)">
<stop stop-color="#AEB2D5"/>
<stop offset="0.3" stop-color="#AEB2D5"/>
<stop offset="0.75" stop-color="#484C89"/>
<stop offset="1" stop-color="#484C89"/>
</radialGradient>
<clipPath id="clip0">
<rect width="102" height="102" fill="white"/>
</clipPath>
</defs>
</svg>
