<svg width="94" height="94" viewBox="0 0 94 94" fill="none" xmlns="http://www.w3.org/2000/svg">
<path d="M24.3248 12.9707C24.3248 6.64434 26.06 3.20277 35.6401 1.56395C42.1442 0.449427 50.4837 0.310111 58.2626 1.56395C64.4067 2.55542 69.578 7.02978 69.578 12.9707V33.8425C69.578 39.9641 64.5573 44.9785 58.2626 44.9785H35.6401C27.9623 44.9785 21.4915 51.3787 21.4915 58.6143V68.6283H13.713C7.13338 68.6283 3.30256 63.99 1.69328 57.4998C-0.47744 48.7804 -0.385291 43.5853 1.69328 35.2347C3.49541 27.9499 9.25377 24.1062 15.8339 24.1062H46.9554V21.3199H24.3244V12.9702L24.3248 12.9707Z" fill="url(#paint0_linear)"/>
<path d="M69.5784 79.7648C69.5784 86.0911 63.9626 89.2954 58.2632 90.8934C49.6886 93.3026 42.8069 92.9339 35.6406 90.8934C29.6557 89.1891 24.3253 85.7062 24.3253 79.7648V58.893C24.3253 52.8861 29.4467 47.757 35.6406 47.757H58.2632C65.7985 47.757 72.4118 41.3902 72.4118 33.8426V24.1072H80.8942C87.4824 24.1072 90.5841 28.8927 92.2095 35.2357C94.4724 44.0451 94.5731 50.6334 92.2095 57.5007C89.9215 64.1712 87.4738 68.6293 80.8942 68.6293H46.9559V71.4156H69.5784V79.7653V79.7648Z" fill="url(#paint1_linear)"/>
<path d="M29.9824 11.5857C29.9824 9.27494 31.8767 7.40625 34.2241 7.40625C36.5625 7.40625 38.4658 9.27448 38.4658 11.5857C38.4658 13.8891 36.563 15.7568 34.2241 15.7568C31.8776 15.7568 29.9824 13.8886 29.9824 11.5857ZM55.4373 81.1499C55.4373 78.8465 57.3401 76.9788 59.679 76.9788C62.0255 76.9788 63.9207 78.847 63.9207 81.1499C63.9207 83.4607 62.0264 85.3294 59.679 85.3294C57.3406 85.3294 55.4373 83.4611 55.4373 81.1499Z" fill="white"/>
<defs>
<linearGradient id="paint0_linear" x1="69.5784" y1="27.0917" x2="0.100353" y2="26.5267" gradientUnits="userSpaceOnUse">
<stop stop-color="#366A96"/>
<stop offset="1" stop-color="#3679B0"/>
</linearGradient>
<linearGradient id="paint1_linear" x1="93.9442" y1="58.3362" x2="-43.5893" y2="58.3362" gradientUnits="userSpaceOnUse">
<stop stop-color="#FFC836"/>
<stop offset="1" stop-color="#FFE873"/>
</linearGradient>
</defs>
</svg>
