<svg width="84" height="84" viewBox="0 0 84 84" fill="none" xmlns="http://www.w3.org/2000/svg">
<path d="M84 65.0869C80.9445 65.8639 79.0545 65.121 77.3587 62.5748L65.2995 45.8903L63.5565 43.5803L49.4734 62.6299C47.8643 64.9215 46.1764 65.919 43.1734 65.1079L61.2071 40.9002L44.4176 19.0339C47.3051 18.4722 49.3001 18.7583 51.072 21.3439L63.5801 38.2358L76.1801 21.4358C77.7945 19.1442 79.5296 18.2727 82.4276 19.1179L75.9176 27.7489L67.0976 39.2333C66.0476 40.5458 66.192 41.4435 67.158 42.7114L84 65.0869ZM0.021 40.4959L1.49625 33.2404C5.5125 18.8817 21.9713 12.915 33.3218 21.7875C39.9551 27.006 41.6036 34.3875 41.2755 42.6563H3.885C3.32325 57.54 14.0359 66.5228 27.6938 61.9395C32.4844 60.3304 35.3063 56.5793 36.7185 51.8858C37.4351 49.5338 38.6216 49.1663 40.8319 49.8383C39.7031 55.7078 37.1569 60.6113 31.7756 63.6799C23.7352 68.2737 12.2587 66.7879 6.22125 60.4039C2.625 56.7 1.13925 52.0065 0.4725 46.9875C0.3675 46.158 0.1575 45.3679 0 44.5725C0.014 43.2145 0.021 41.8565 0.021 40.4985V40.4959ZM3.95325 39.4984H37.7423C37.5218 28.7359 30.8201 21.0919 21.6615 21.0263C11.6077 20.9475 4.389 28.4104 3.95325 39.4984Z" fill="white"/>
</svg>
