<svg width="94" height="94" viewBox="0 0 94 94" fill="none" xmlns="http://www.w3.org/2000/svg">
<g clip-path="url(#clip0)">
<path d="M58.3901 78.985C58.1396 78.9855 57.8932 78.9209 57.6752 78.7976C57.4571 78.6743 57.2748 78.4964 57.1461 78.2815L46.1966 60.0176L25.7178 65.5841C25.406 65.6592 25.0781 65.6285 24.7857 65.4969C24.4932 65.3653 24.2528 65.1402 24.1022 64.8571L0.171818 19.8781C0.0612634 19.6721 0.00229076 19.4423 -4.95823e-05 19.2085C-0.00238992 18.9747 0.0519718 18.7438 0.15838 18.5356C0.264788 18.3274 0.420073 18.1481 0.610935 18.0131C0.801796 17.878 1.02255 17.7912 1.25429 17.7602L21.5715 15.0283C21.8522 14.9895 22.138 15.0339 22.3936 15.1561C22.6493 15.2783 22.8634 15.4729 23.0094 15.7157L47.5375 56.6497L76.0401 48.8991L66.5373 35.4748C66.3995 35.2841 66.3103 35.0627 66.2775 34.8298C66.2446 34.5969 66.269 34.3595 66.3485 34.1381C66.4281 33.9168 66.5605 33.7182 66.7341 33.5595C66.9078 33.4008 67.1175 33.2869 67.3451 33.2276L80.6814 30.0756C80.9476 30.0122 81.2264 30.0256 81.4853 30.1142C81.7442 30.2029 81.9727 30.3632 82.1442 30.5765L93.6842 44.9702C93.8348 45.1577 93.9363 45.3798 93.9795 45.6164C94.0227 45.853 94.0062 46.0966 93.9315 46.3253C93.8569 46.5539 93.7264 46.7603 93.5519 46.9258C93.3774 47.0913 93.1644 47.2107 92.9322 47.2732L80.8106 50.5779L91.4208 65.5298C91.5512 65.7128 91.6372 65.9237 91.6719 66.1457C91.7066 66.3677 91.6892 66.5947 91.6209 66.8088C91.5526 67.0229 91.4354 67.2181 91.2786 67.379C91.1217 67.54 90.9296 67.6621 90.7173 67.7359L58.8528 78.8807C58.705 78.9355 58.5492 78.9658 58.3916 78.9703L58.3901 78.985ZM49.0959 59.2259L59.0202 75.7758L87.9428 65.6502L77.8408 51.4107L49.0959 59.2259ZM3.70122 20.3305L26.0953 62.4836L44.6823 57.4414L21.0119 18.0289L3.70122 20.3305ZM70.1622 35.5555L79.051 48.0899L90.1063 45.0833L80.4889 33.1071L70.1622 35.5555Z" fill="#EF533F"/>
</g>
<defs>
<clipPath id="clip0">
<rect width="94" height="94" fill="white"/>
</clipPath>
</defs>
</svg>
