<svg width="40" height="40" viewBox="0 0 40 40" fill="none" xmlns="http://www.w3.org/2000/svg">
<path d="M1.29891 38.2691H6.49898C7.21638 38.2691 7.79789 37.6876 7.79789 36.9702V14.2408C7.79789 13.5233 7.21638 12.9419 6.49898 12.9419H1.29891C0.581435 12.9419 0 13.5233 0 14.2408V36.9702C0 37.6875 0.581435 38.2691 1.29891 38.2691Z" fill="white"/>
<path d="M1.29891 8.94598H6.49898C7.21638 8.94598 7.79789 8.36447 7.79789 7.64707V3.02938C7.79789 2.31198 7.21638 1.73047 6.49898 1.73047H1.29891C0.581435 1.73047 0 2.31198 0 3.02938V7.64707C0 8.36447 0.581435 8.94598 1.29891 8.94598Z" fill="white"/>
<path d="M38.0435 15.5783C37.3128 14.6165 36.2353 13.8255 34.8106 13.2055C33.3859 12.5859 31.8133 12.2759 30.0928 12.2759C26.6 12.2759 23.6403 13.6089 21.2139 16.2754C20.7311 16.8059 20.3801 16.6899 20.3801 15.9725V14.2409C20.3801 13.5234 19.7985 12.942 19.0811 12.942H14.436C13.7185 12.942 13.1371 13.5234 13.1371 14.2409V36.9703C13.1371 37.6877 13.7186 38.2693 14.436 38.2693H19.6361C20.3535 38.2693 20.935 37.6877 20.935 36.9703V29.0656C20.935 25.7725 21.1338 23.5153 21.5315 22.2943C21.9291 21.0733 22.6647 20.0929 23.7377 19.3528C24.8109 18.6128 26.0225 18.2426 27.3732 18.2426C28.4277 18.2426 29.3297 18.5016 30.0791 19.0198C30.8284 19.5379 31.3696 20.2637 31.7026 21.1982C32.0358 22.1326 32.2022 24.1907 32.2022 27.3729V36.9702C32.2022 37.6876 32.7837 38.2692 33.5011 38.2692H38.7011C39.4185 38.2692 40 37.6876 40 36.9702V24.0982C40 21.8227 39.8565 20.0743 39.5701 18.8533C39.2836 17.6323 38.7747 16.5407 38.0435 15.5783Z" fill="white"/>
</svg>
