<svg width="270" height="62" viewBox="0 0 270 62" fill="none" xmlns="http://www.w3.org/2000/svg">
<path d="M8.69661 24.0248H20.8742V29.4738H3V0.577917H20.6678V6.02685H8.69661V12.1775H19.6358V17.5439H8.69661V24.0248Z" fill="white"/>
<path d="M30.5862 24.0248H41.6079V29.4738H24.8896V0.577917H30.5862V24.0248Z" fill="white"/>
<path d="M50.5408 24.0248H62.7183V29.4738H44.8442V0.577917H62.5119V6.02685H50.5408V12.1775H61.4799V17.5439H50.5408V24.0248Z" fill="white"/>
<path d="M80.2371 30.0517C75.8889 30.0517 72.2976 28.6069 69.4631 25.7173C66.6285 22.8277 65.2112 19.2639 65.2112 15.0258C65.2112 10.7603 66.6285 7.19645 69.4631 4.33438C72.2976 1.44479 75.8889 0 80.2371 0C82.8515 0 85.2595 0.619197 87.4611 1.85759C89.6902 3.06847 91.4239 4.71966 92.6623 6.81117L87.75 9.65947C87.0345 8.36604 86.0163 7.36157 84.6953 6.64605C83.3744 5.90301 81.8883 5.53149 80.2371 5.53149C77.4301 5.53149 75.1597 6.41213 73.4259 8.1734C71.7197 9.93467 70.8666 12.2188 70.8666 15.0258C70.8666 17.8054 71.7197 20.0757 73.4259 21.837C75.1597 23.5983 77.4301 24.4789 80.2371 24.4789C81.8883 24.4789 83.3744 24.1212 84.6953 23.4056C86.0438 22.6626 87.062 21.6581 87.75 20.3922L92.6623 23.2405C91.4239 25.332 89.7039 26.997 87.5023 28.2354C85.3008 29.4463 82.879 30.0517 80.2371 30.0517Z" fill="white"/>
<path d="M115.153 0.577917V6.02685H107.351V29.4738H101.655V6.02685H93.8943V0.577917H115.153Z" fill="white"/>
<path d="M134.185 29.4738L128.365 19.4428H124.03V29.4738H118.334V0.577917H129.892C132.561 0.577917 134.832 1.51359 136.703 3.38494C138.574 5.2563 139.51 7.51292 139.51 10.1548C139.51 11.9436 139.001 13.6086 137.983 15.1497C136.964 16.6633 135.616 17.8054 133.937 18.5759L140.336 29.4738H134.185ZM124.03 5.90301V14.4479H129.892C130.965 14.4479 131.887 14.0351 132.658 13.2095C133.428 12.3564 133.813 11.3382 133.813 10.1548C133.813 8.97148 133.428 7.967 132.658 7.14141C131.887 6.31581 130.965 5.90301 129.892 5.90301H124.03Z" fill="white"/>
<path d="M167.681 25.7173C164.764 28.6069 161.214 30.0517 157.031 30.0517C152.848 30.0517 149.298 28.6069 146.381 25.7173C143.491 22.8002 142.047 19.2364 142.047 15.0258C142.047 10.8153 143.491 7.26525 146.381 4.37566C149.298 1.45855 152.848 0 157.031 0C161.214 0 164.764 1.45855 167.681 4.37566C170.598 7.26525 172.057 10.8153 172.057 15.0258C172.057 19.2364 170.598 22.8002 167.681 25.7173ZM150.385 21.837C152.174 23.5983 154.389 24.4789 157.031 24.4789C159.673 24.4789 161.888 23.5983 163.677 21.837C165.466 20.0482 166.36 17.7778 166.36 15.0258C166.36 12.2739 165.466 10.0035 163.677 8.21468C161.888 6.42589 159.673 5.53149 157.031 5.53149C154.389 5.53149 152.174 6.42589 150.385 8.21468C148.596 10.0035 147.702 12.2739 147.702 15.0258C147.702 17.7778 148.596 20.0482 150.385 21.837Z" fill="white"/>
<path d="M193.522 14.4892C196.054 15.9478 197.32 18.1494 197.32 21.094C197.32 23.5432 196.453 25.5522 194.719 27.1208C192.985 28.6895 190.853 29.4738 188.321 29.4738H176.061V0.577917H187.454C189.931 0.577917 192.008 1.34847 193.687 2.88959C195.393 4.40318 196.247 6.34333 196.247 8.71004C196.247 11.1043 195.338 13.0307 193.522 14.4892ZM187.454 5.90301H181.757V12.2601H187.454C188.335 12.2601 189.064 11.9574 189.642 11.3519C190.247 10.7465 190.55 9.98971 190.55 9.08156C190.55 8.1734 190.261 7.41661 189.683 6.81117C189.105 6.20573 188.362 5.90301 187.454 5.90301ZM188.321 24.1487C189.284 24.1487 190.082 23.8322 190.715 23.1992C191.348 22.5388 191.665 21.7132 191.665 20.7225C191.665 19.7593 191.348 18.9612 190.715 18.3282C190.082 17.6678 189.284 17.3375 188.321 17.3375H181.757V24.1487H188.321Z" fill="white"/>
<path d="M222.593 0.577917L212.686 18.2044V29.4738H207.031V18.2044L197.165 0.577917H203.604L209.879 12.6316L216.153 0.577917H222.593Z" fill="white"/>
<path d="M244.475 0.577917V6.02685H236.673V29.4738H230.977V6.02685H223.216V0.577917H244.475Z" fill="white"/>
<path d="M253.352 24.0248H265.53V29.4738H247.655V0.577917H265.323V6.02685H253.352V12.1775H264.291V17.5439H253.352V24.0248Z" fill="white"/>
<path d="M6.91652 55.308C5.39118 55.308 4.10785 54.9707 3.06652 54.296C2.02518 53.6067 1.29185 52.6753 0.866516 51.502L3.46252 49.984C4.06385 51.5533 5.24452 52.338 7.00452 52.338C7.85518 52.338 8.47852 52.184 8.87452 51.876C9.27052 51.568 9.46852 51.1793 9.46852 50.71C9.46852 50.1673 9.22652 49.7493 8.74252 49.456C8.25852 49.148 7.39318 48.818 6.14652 48.466C5.45718 48.2607 4.87052 48.0553 4.38652 47.85C3.91718 47.6447 3.44052 47.3733 2.95652 47.036C2.48718 46.684 2.12785 46.244 1.87852 45.716C1.62918 45.188 1.50452 44.572 1.50452 43.868C1.50452 42.4747 1.99585 41.3673 2.97852 40.546C3.97585 39.71 5.17118 39.292 6.56452 39.292C7.81118 39.292 8.90385 39.6 9.84252 40.216C10.7958 40.8173 11.5365 41.6607 12.0645 42.746L9.51252 44.22C8.89652 42.9 7.91385 42.24 6.56452 42.24C5.93385 42.24 5.43518 42.3867 5.06852 42.68C4.71652 42.9587 4.54052 43.3253 4.54052 43.78C4.54052 44.264 4.73852 44.66 5.13452 44.968C5.54518 45.2613 6.32252 45.584 7.46652 45.936C7.93585 46.0827 8.28785 46.2 8.52252 46.288C8.77185 46.3613 9.10185 46.486 9.51252 46.662C9.93785 46.8233 10.2605 46.9773 10.4805 47.124C10.7152 47.2707 10.9792 47.4687 11.2725 47.718C11.5658 47.9673 11.7858 48.224 11.9325 48.488C12.0938 48.752 12.2258 49.0747 12.3285 49.456C12.4458 49.8227 12.5045 50.226 12.5045 50.666C12.5045 52.0887 11.9838 53.218 10.9425 54.054C9.91585 54.89 8.57385 55.308 6.91652 55.308ZM27.3353 52.998C25.7806 54.538 23.8886 55.308 21.6593 55.308C19.4299 55.308 17.5379 54.538 15.9833 52.998C14.4433 51.4433 13.6733 49.544 13.6733 47.3C13.6733 45.056 14.4433 43.164 15.9833 41.624C17.5379 40.0693 19.4299 39.292 21.6593 39.292C23.8886 39.292 25.7806 40.0693 27.3353 41.624C28.8899 43.164 29.6673 45.056 29.6673 47.3C29.6673 49.544 28.8899 51.4433 27.3353 52.998ZM18.1173 50.93C19.0706 51.8687 20.2513 52.338 21.6593 52.338C23.0673 52.338 24.2479 51.8687 25.2013 50.93C26.1546 49.9767 26.6313 48.7667 26.6313 47.3C26.6313 45.8333 26.1546 44.6233 25.2013 43.67C24.2479 42.7167 23.0673 42.24 21.6593 42.24C20.2513 42.24 19.0706 42.7167 18.1173 43.67C17.1639 44.6233 16.6873 45.8333 16.6873 47.3C16.6873 48.7667 17.1639 49.9767 18.1173 50.93ZM40.9971 42.504H34.8371V46.156H40.8211V49.06H34.8371V55H31.8011V39.6H40.9971V42.504ZM53.3953 39.6V42.504H49.2373V55H46.2013V42.504H42.0653V39.6H53.3953ZM58.3022 55L53.9902 39.6H57.1802L60.1282 51.018L63.3402 39.6H65.9362L69.1702 51.018L72.1182 39.6H75.3082L70.9962 55H67.5422L64.6382 44.836L61.7562 55H58.3022ZM86.0878 55L85.1638 52.228H79.0258L78.1018 55H74.8238L80.2138 39.6H83.9758L89.3878 55H86.0878ZM79.9938 49.39H84.2178L82.1058 43.098L79.9938 49.39ZM99.3311 55L96.2291 49.654H93.9191V55H90.8831V39.6H97.0431C98.4658 39.6 99.6758 40.0987 100.673 41.096C101.67 42.0933 102.169 43.296 102.169 44.704C102.169 45.6573 101.898 46.5447 101.355 47.366C100.812 48.1727 100.094 48.7813 99.1991 49.192L102.609 55H99.3311ZM93.9191 42.438V46.992H97.0431C97.6151 46.992 98.1065 46.772 98.5171 46.332C98.9278 45.8773 99.1331 45.3347 99.1331 44.704C99.1331 44.0733 98.9278 43.538 98.5171 43.098C98.1065 42.658 97.6151 42.438 97.0431 42.438H93.9191ZM107.433 52.096H113.923V55H104.397V39.6H113.813V42.504H107.433V45.782H113.263V48.642H107.433V52.096ZM127.679 39.6C129.791 39.6 131.551 40.3407 132.959 41.822C134.381 43.3033 135.093 45.1293 135.093 47.3C135.093 49.4707 134.381 51.2967 132.959 52.778C131.551 54.2593 129.791 55 127.679 55H121.563V39.6H127.679ZM127.679 52.096C129.013 52.096 130.099 51.656 130.935 50.776C131.771 49.8813 132.189 48.7227 132.189 47.3C132.189 45.8773 131.771 44.726 130.935 43.846C130.099 42.9513 129.013 42.504 127.679 42.504H124.599V52.096H127.679ZM140.282 52.096H146.772V55H137.246V39.6H146.662V42.504H140.282V45.782H146.112V48.642H140.282V52.096ZM152.718 55L147.548 39.6H150.848L154.61 51.436L158.35 39.6H161.672L156.48 55H152.718ZM166.193 52.096H172.683V55H163.157V39.6H172.573V42.504H166.193V45.782H172.023V48.642H166.193V52.096ZM177.859 52.096H183.733V55H174.823V39.6H177.859V52.096ZM197.47 52.998C195.915 54.538 194.023 55.308 191.794 55.308C189.565 55.308 187.673 54.538 186.118 52.998C184.578 51.4433 183.808 49.544 183.808 47.3C183.808 45.056 184.578 43.164 186.118 41.624C187.673 40.0693 189.565 39.292 191.794 39.292C194.023 39.292 195.915 40.0693 197.47 41.624C199.025 43.164 199.802 45.056 199.802 47.3C199.802 49.544 199.025 51.4433 197.47 52.998ZM188.252 50.93C189.205 51.8687 190.386 52.338 191.794 52.338C193.202 52.338 194.383 51.8687 195.336 50.93C196.289 49.9767 196.766 48.7667 196.766 47.3C196.766 45.8333 196.289 44.6233 195.336 43.67C194.383 42.7167 193.202 42.24 191.794 42.24C190.386 42.24 189.205 42.7167 188.252 43.67C187.299 44.6233 186.822 45.8333 186.822 47.3C186.822 48.7667 187.299 49.9767 188.252 50.93ZM207.678 39.6C209.159 39.6 210.406 40.0987 211.418 41.096C212.43 42.0933 212.936 43.318 212.936 44.77C212.936 46.222 212.43 47.4467 211.418 48.444C210.406 49.4413 209.159 49.94 207.678 49.94H204.972V55H201.936V39.6H207.678ZM207.678 47.102C208.323 47.102 208.859 46.882 209.284 46.442C209.709 45.9873 209.922 45.43 209.922 44.77C209.922 44.0953 209.709 43.538 209.284 43.098C208.859 42.658 208.323 42.438 207.678 42.438H204.972V47.102H207.678ZM229.982 39.6V55H226.968V45.012L222.634 52.162H222.282L217.948 45.034V55H214.912V39.6H218.036L222.458 46.882L226.858 39.6H229.982ZM235.888 52.096H242.378V55H232.852V39.6H242.268V42.504H235.888V45.782H241.718V48.642H235.888V52.096ZM253.428 39.6H256.464V55H254.154L247.554 45.584V55H244.518V39.6H246.828L253.428 48.994V39.6ZM269.507 39.6V42.504H265.349V55H262.313V42.504H258.177V39.6H269.507Z" fill="white"/>
</svg>
