<svg width="30" height="30" viewBox="0 0 30 30" fill="none" xmlns="http://www.w3.org/2000/svg">
<g clip-path="url(#clip0)">
<path d="M29.7375 8.72395L21.6125 0.286548C21.3475 0.0116642 20.9412 -0.0746234 20.5876 0.0677395C20.2326 0.211476 20.0001 0.555252 20.0001 0.93771V5.00032H19.6877C12.9678 5.00032 7.50031 10.4678 7.50031 17.1877V19.0627C7.50031 19.4975 7.80655 19.8601 8.2302 19.9589C8.29909 19.9763 8.36776 19.9839 8.43642 19.9839C8.79027 19.9839 9.12901 19.7763 9.29266 19.4501C11.0502 15.9339 14.5839 13.7501 18.5151 13.7501H20.0001V17.8125C20.0001 18.1952 20.2326 18.539 20.5876 18.6813C20.939 18.8251 21.3475 18.7376 21.6125 18.4625L29.7375 10.0251C30.0875 9.66144 30.0875 9.08901 29.7375 8.72395Z"/>
<path d="M26.2501 29.9999H3.75039C1.68292 29.9999 0.000427246 28.3177 0.000427246 26.25V8.75032C0.000427246 6.68286 1.68292 5.00037 3.75039 5.00037H7.50035C8.19156 5.00037 8.75026 5.55906 8.75026 6.25028C8.75026 6.94149 8.19156 7.50019 7.50035 7.50019H3.75039C3.06032 7.50019 2.50025 8.06025 2.50025 8.75032V26.25C2.50025 26.94 3.06032 27.5001 3.75039 27.5001H26.2501C26.94 27.5001 27.5001 26.94 27.5001 26.25V16.2502C27.5001 15.559 28.0588 15.0001 28.75 15.0001C29.4414 15.0001 30.0001 15.559 30.0001 16.2502V26.25C30.0001 28.3177 28.3176 29.9999 26.2501 29.9999Z"/>
</g>
<defs>
<clipPath id="clip0">
<rect width="30" height="30" fill="white"/>
</clipPath>
</defs>
</svg>
