<svg width="124" height="124" viewBox="0 0 124 124" fill="none" xmlns="http://www.w3.org/2000/svg">
<g clip-path="url(#clip0)">
<path d="M25.9964 0.876875L0.405342 37.2859C-0.0554743 37.931 -0.115566 38.7801 0.249792 39.4838C0.615149 40.1874 1.34424 40.6268 2.13707 40.621H14.9647V47.0348C14.9611 62.96 21.8351 78.1108 33.8212 88.5962L39.0805 93.1928C45.4939 98.8108 49.1718 106.923 49.1715 115.449V121.862C49.1715 123.043 50.1287 124 51.3095 124H72.6888C73.8695 124 74.8267 123.043 74.8267 121.862V115.449C74.787 99.5329 67.9208 84.399 55.9702 73.8872L50.7109 69.2907C44.2975 63.6726 40.6196 55.5609 40.6198 47.0348V40.621H53.4474C54.2402 40.6268 54.9693 40.1874 55.3347 39.4838C55.7 38.7801 55.6399 37.931 55.1791 37.2859L29.4598 0.876875C29.0569 0.322864 28.4132 -0.0049057 27.7281 -0.0049057C27.043 -0.0049057 26.3993 0.322864 25.9964 0.876875Z" fill="url(#paint0_linear)"/>
<path d="M68.4138 38.5041C68.416 39.0685 68.6427 39.6088 69.0438 40.0058C69.4448 40.4029 69.9874 40.6241 70.5517 40.6207H83.3793V47.0345C83.3795 55.5605 79.7016 63.6722 73.2883 69.2903L68.029 73.8869C66.9386 74.849 65.891 75.8538 64.8862 76.88C65.0145 77.051 65.1641 77.2007 65.2924 77.3717C71.416 84.699 75.6775 93.398 77.7138 102.728C79.4332 99.087 81.886 95.8407 84.9186 93.1924L90.1779 88.5958C102.164 78.1105 109.038 62.9596 109.034 47.0345V40.6207H121.862C122.655 40.6264 123.384 40.1871 123.749 39.4834C124.115 38.7798 124.055 37.9307 123.594 37.2855L97.8745 0.876539C97.4715 0.322529 96.8278 -0.00524139 96.1428 -0.00524139C95.4577 -0.00524139 94.814 0.322529 94.411 0.876539L68.82 37.2855C68.5597 37.6388 68.4175 38.0653 68.4138 38.5041Z" fill="url(#paint1_linear)"/>
</g>
<defs>
<linearGradient id="paint0_linear" x1="37.4196" y1="-0.0049057" x2="37.4196" y2="124" gradientUnits="userSpaceOnUse">
<stop stop-color="#8100EC"/>
<stop offset="0.0001" stop-color="#BA00B2"/>
<stop offset="0.0002" stop-color="#D70094"/>
<stop offset="1" stop-color="#FB006E"/>
</linearGradient>
<linearGradient id="paint1_linear" x1="94.4364" y1="-0.00524139" x2="94.4364" y2="102.728" gradientUnits="userSpaceOnUse">
<stop stop-color="#8100EC"/>
<stop offset="0.0001" stop-color="#BA00B2"/>
<stop offset="0.0002" stop-color="#D70094"/>
<stop offset="1" stop-color="#FB006E"/>
</linearGradient>
<clipPath id="clip0">
<rect width="124" height="124" fill="white"/>
</clipPath>
</defs>
</svg>
