<svg width="103" height="103" viewBox="0 0 103 103" fill="none" xmlns="http://www.w3.org/2000/svg">
<path d="M51.5003 60.6125C56.5801 60.6125 60.698 56.4946 60.698 51.4149C60.698 46.3352 56.5801 42.2173 51.5003 42.2173C46.4206 42.2173 42.3027 46.3352 42.3027 51.4149C42.3027 56.4946 46.4206 60.6125 51.5003 60.6125Z" fill="#00D8FF"/>
<path fill-rule="evenodd" clip-rule="evenodd" d="M51.5006 32.7144C63.8496 32.7144 75.3216 34.4863 83.9714 37.4641C94.3932 41.0521 100.801 46.4905 100.801 51.415C100.801 56.5467 94.01 62.3243 82.8183 66.0324C74.3572 68.8356 63.223 70.2991 51.5006 70.2991C39.4819 70.2991 28.1009 68.9255 19.5444 66.0016C8.71891 62.3014 2.19861 56.449 2.19861 51.415C2.19861 46.5305 8.31667 41.1341 18.592 37.5516C27.274 34.5247 39.0292 32.7144 51.4989 32.7144H51.5006Z" stroke="#00D8FF" stroke-width="2.73408"/>
<path fill-rule="evenodd" clip-rule="evenodd" d="M35.2211 42.1185C41.3905 31.421 48.6562 22.3684 55.5571 16.3629C63.8716 9.12719 71.784 6.29348 76.0498 8.75336C80.4954 11.317 82.1077 20.0863 79.7289 31.6335C77.9321 40.3637 73.6358 50.7397 67.7795 60.8945C61.7751 71.306 54.8999 80.4789 48.093 86.4287C39.4797 93.9581 31.1524 96.6829 26.7916 94.168C22.5602 91.7296 20.942 83.7323 22.9719 73.0412C24.6871 64.008 28.9914 52.9205 35.2191 42.1183L35.2211 42.1185Z" stroke="#00D8FF" stroke-width="2.73408"/>
<path fill-rule="evenodd" clip-rule="evenodd" d="M35.2365 60.9219C29.0497 50.2364 24.8374 39.4185 23.0792 30.4407C20.9627 19.6236 22.4591 11.3531 26.7211 8.88612C31.1623 6.31496 39.5649 9.29754 48.3809 17.1254C55.0464 23.0436 61.8908 31.9461 67.7641 42.0914C73.7857 52.4928 78.2988 63.0306 80.0545 71.8992C82.276 83.122 80.478 91.697 76.1213 94.219C71.894 96.6662 64.1584 94.0752 55.9099 86.9771C48.9406 80.98 41.4843 71.7134 35.2365 60.9217V60.9219Z" stroke="#00D8FF" stroke-width="2.73408"/>
</svg>
