<svg width="186" height="186" viewBox="0 0 186 186" fill="none" xmlns="http://www.w3.org/2000/svg">
<g clip-path="url(#clip0)">
<path d="M166.928 73.9277C158.305 73.9277 151.004 79.6817 148.653 87.5508H133.505C131.071 69.366 116.634 54.9289 98.4492 52.4949V37.3468C106.318 34.996 112.072 27.6951 112.072 19.0719C112.072 8.556 103.516 0 93 0C82.4834 0 73.9277 8.556 73.9277 19.0723C73.9277 27.6955 79.6817 34.9963 87.5508 37.3471V52.4952C80.3505 53.459 73.7388 56.3046 68.2257 60.5194L57.5071 49.8008C59.0016 47.046 59.7975 43.9469 59.7975 40.7249C59.7975 35.6306 57.8137 30.8411 54.2114 27.2388C46.7754 19.8028 34.6756 19.8028 27.2392 27.2388C23.6369 30.8411 21.653 35.6306 21.653 40.7249C21.653 45.8192 23.6369 50.6087 27.2392 54.211C30.9577 57.9296 35.8406 59.7888 40.7253 59.7885C43.8502 59.7885 46.9741 59.0227 49.7942 57.5002L60.5197 68.2253C56.3046 73.7385 53.459 80.3502 52.4952 87.5504H37.3471C34.9963 79.6814 27.6955 73.9274 19.0723 73.9274C8.55564 73.9277 0 82.4837 0 93C0 103.516 8.55564 112.072 19.0723 112.072C27.6955 112.072 34.9963 106.318 37.3471 98.4492H52.4952C54.9289 116.634 69.366 131.071 87.5508 133.505V148.653C79.6817 151.004 73.9277 158.305 73.9277 166.928C73.9277 177.444 82.4834 186 93 186C103.516 186 112.072 177.444 112.072 166.928C112.072 158.305 106.318 151.004 98.4492 148.653V133.505C116.634 131.071 131.071 116.634 133.505 98.4492H148.653C151.004 106.318 158.305 112.072 166.928 112.072C177.444 112.072 186 103.516 186 93C186 82.4837 177.444 73.9277 166.928 73.9277ZM19.0723 101.174C14.565 101.174 10.8984 97.5069 10.8984 93C10.8984 88.4931 14.565 84.8262 19.0723 84.8262C23.5795 84.8262 27.2461 88.4931 27.2461 93C27.2461 97.5069 23.5795 101.174 19.0723 101.174ZM84.8262 19.0723C84.8262 14.5654 88.4928 10.8984 93 10.8984C97.5069 10.8984 101.174 14.5654 101.174 19.0723C101.174 23.5791 97.5069 27.2461 93 27.2461C88.4928 27.2461 84.8262 23.5791 84.8262 19.0723ZM34.9455 46.5051C33.4015 44.9611 32.5515 42.9086 32.5515 40.7253C32.5515 38.542 33.4015 36.4894 34.9455 34.9455C36.5392 33.3521 38.6321 32.5554 40.7253 32.5554C42.8181 32.5554 44.9114 33.3521 46.5051 34.9455C48.049 36.4894 48.8991 38.542 48.8991 40.7253C48.8991 42.9086 48.049 44.9611 46.5051 46.5051C43.3177 49.6914 38.1322 49.6914 34.9455 46.5051ZM101.174 166.928C101.174 171.435 97.5069 175.102 93 175.102C88.4928 175.102 84.8262 171.435 84.8262 166.928C84.8262 162.421 88.4928 158.754 93 158.754C97.5069 158.754 101.174 162.421 101.174 166.928ZM93 122.971C76.474 122.971 63.0293 109.526 63.0293 93C63.0293 76.4743 76.474 63.0293 93 63.0293C109.526 63.0293 122.971 76.4743 122.971 93C122.971 109.526 109.526 122.971 93 122.971ZM166.928 101.174C162.421 101.174 158.754 97.5069 158.754 93C158.754 88.4931 162.421 84.8262 166.928 84.8262C171.435 84.8262 175.102 88.4931 175.102 93C175.102 97.5069 171.435 101.174 166.928 101.174Z" fill="#0047FF"/>
</g>
<defs>
<clipPath id="clip0">
<rect width="186" height="186" fill="white"/>
</clipPath>
</defs>
</svg>
